<svg width="1024" height="1024" viewBox="0 0 1024 1024" fill="none" xmlns="http://www.w3.org/2000/svg">
<path d="M509.94 0.137885C703.307 4.60801 893.941 117.682 978.056 300.832C993.585 334.652 1005.24 370.217 1012.98 406.612C1021.02 444.38 1024.63 482.734 1023.91 521.343C1023.22 558.105 1018.24 594.606 1009.84 630.396C1001.78 664.784 990.403 698.396 975.642 730.486C965.709 752.079 954.397 773.328 941.21 793.127C907.329 845.448 864.207 890.949 813.772 927.527C787.197 946.799 758.676 963.098 728.894 976.822C670.201 1003.87 607.23 1019.6 542.857 1023.16L532.823 1023.47C532.433 1023.48 531.427 1023.96 531.534 1023.99H494.073C494.292 1024.07 493.393 1023.51 493.233 1023.51L482.773 1023.2C331.268 1014.39 189.241 941.31 99.2101 818.017C57.3894 763.991 27.8326 701.747 12.2615 635.18C-8.57492 546.103 -1.38688 454.291 22.7566 366.73C26.4897 353.189 30.8262 339.814 35.8903 326.712C73.7473 228.849 139.374 142.442 225.992 82.9625C312.195 23.7733 411.419 -2.14158 509.94 0.137885ZM578.152 306.214C578.59 309.417 582.217 310.465 584.347 309.862C587.494 308.973 590.268 307.653 592.901 305.93C609.786 294.87 631.462 296.25 643.768 313.337C648.932 320.513 652.245 328.529 654.529 337.263C657.99 350.513 660.824 363.456 663.019 377.05L671.218 427.837L679.672 478.448C680.394 482.776 683.328 492.03 689.215 489.655L697.184 486.44C704.484 483.492 712.891 485.203 721.191 485.191L811.944 485.102L922.545 485.31C928.704 485.321 929.497 476.411 929.183 472.758C922.013 388.944 889.474 309.554 835.993 244.686C778.891 175.426 701.059 125.751 614.181 103.14C534.095 82.2994 449.969 86.0176 371.995 113.685C337.522 125.917 304.729 142.507 274.563 163.407C172.777 233.94 101.417 348.429 93.8975 473.285C93.7023 476.565 94.1046 479.448 95.3824 482.16C96.4769 484.487 98.6836 485.245 101.34 485.245L223.791 485.227L266.381 485.262C271.486 485.262 274.048 482.468 275.669 477.927L329.162 327.991C334.682 312.514 367.463 298.967 388.85 318.541C393.819 323.088 398.848 329.731 399.925 336.789L423.766 492.959C424.133 495.381 426.92 496.352 428.647 496.417C430.274 496.476 433.386 495.949 433.836 493.563L491.358 187.386C491.925 184.355 494.895 182.01 496.771 180.009C505.899 170.275 518.536 165.728 532.173 168.073C543.721 170.062 554.506 177.788 560.25 189.121C561.936 192.448 563.06 195.438 563.593 199.364L578.135 306.22L578.152 306.214ZM215.153 812.239C273.356 869.155 346.686 908.486 426.304 925.413C488.37 938.61 552.335 937.308 613.826 921.801C649.175 912.885 683.133 899.427 714.879 881.493C826.367 818.497 907.974 706.276 926.142 578.709C926.852 573.712 927.793 561.835 920.273 561.835H745.654C741.135 561.835 738.425 569.111 737.603 572.344L725.108 621.651C721.665 635.228 718.18 648.218 713.637 661.379C711.874 666.495 709.85 671.125 706.886 675.512C697.208 689.846 680.069 695.939 663.385 690.752C650.459 686.732 639.124 676.436 636.568 662.593L599.669 462.698C599.083 459.525 596.646 458.063 593.487 458.951C587.275 460.697 584.607 467.796 575.857 473.332C561.41 482.468 543.111 480.058 531.486 467.648C529.197 465.203 526.807 463.32 523.665 461.941C522.103 461.254 517.702 461.354 517.246 463.883L460.765 775.122C458.553 787.301 449.59 797.751 439.13 803.393C427.712 809.557 414.348 808.704 403.474 802.239C393.577 796.354 386.773 787.023 383.703 775.909L349.744 532.971C349.484 531.118 346.798 530.194 345.585 530.194C335.072 530.218 337.386 549.638 319.034 557.767C312.733 560.562 306.456 561.864 299.286 561.864L130.341 561.793L98.5298 562.178C95.8498 562.214 95.0038 566.074 95.2405 568.265C105.446 661.521 148.213 746.774 215.165 812.251L215.153 812.239Z" fill="white"/>
</svg>
