<svg width="400" height="400" viewBox="0 0 400 400" fill="none" xmlns="http://www.w3.org/2000/svg">
<rect width="400" height="400" fill="#4A0000"/>
<path fill-rule="evenodd" clip-rule="evenodd" d="M82.8352 236.4C101.235 245.2 121.102 243.467 134.569 232C150.302 218.534 158.968 194.133 159.102 162.8C159.235 130.8 152.568 102.666 137.635 72.3997C128.035 52.9332 119.768 41.3333 105.102 26.5335C93.7685 15.3335 89.7683 12.1333 79.9016 7.33328C68.835 1.86663 67.2349 1.46668 55.9016 1.06668C47.6353 0.800028 42.0353 1.33309 38.5686 2.66629C22.0352 8.93296 8.83506 27.3337 3.36839 51.4671C-0.098177 66.6671 0.301637 98.6663 4.1682 116.666C16.0349 172.8 46.5685 219.2 82.8352 236.4ZM133.635 141.067C133.635 141.6 122.302 136.267 108.302 129.333C94.4357 122.4 82.3023 117.067 81.3684 117.333C79.9017 117.867 78.9679 113.333 77.2346 97.0667C74.7013 75.4668 73.3679 70.6664 69.2346 68.1331C67.3682 66.9334 66.4351 67.2006 64.8352 69.2005C62.9687 71.7336 62.968 71.7333 62.968 68.5335C62.968 66.8001 62.3017 59.7334 61.635 52.8001C60.7017 42.8003 59.9015 39.7337 57.635 37.4671C55.5488 35.4976 53.7408 35.7614 52.4348 37.4671C50.7016 39.6008 49.3683 46.9344 47.1018 66.8001C45.5018 81.3334 43.7684 96.2669 43.3684 100L41.8821 111L40.302 84.6663C38.8353 63.8667 37.7682 59.3333 34.1682 59.3333C31.7683 59.3334 30.4349 62.8003 27.635 77.0667L25.3684 88.5335L8.03538 80.0003L8.83519 70.6663C10.702 48.1332 20.8352 29.9996 35.3684 22.6663C44.9683 17.7331 57.7684 18.3998 69.9016 24.3997C94.1683 36.3997 118.168 70.6671 127.635 107.467C129.502 114.534 133.502 137.2 133.635 141.067ZM90.968 213.333C82.4351 213.333 79.6349 212.667 72.302 209.2C46.9687 196.934 25.2348 166.267 14.4348 128C11.1015 116.534 6.70159 92.6663 7.90159 92.6663C8.16857 92.6665 13.1021 95.3331 18.8352 98.6663C24.5685 102 29.5016 104.666 29.9016 104.666C30.9366 105.202 31.59 103.479 31.7678 100.934C32.4345 98.5339 33.5013 106.667 34.968 125.6C36.7013 146.799 37.768 154.666 39.5012 157.333C42.1679 161.467 45.3682 161.6 46.1682 157.6C47.1016 153.066 53.6342 101.736 53.7678 98.0003C53.9011 94.9337 54.0345 94.9335 55.7678 99.0667C58.0344 104.4 61.3683 106 63.635 102.934C66.1683 99.4672 66.968 100.267 66.968 106.267C66.968 109.467 68.1684 121.867 69.635 134C72.3016 156.267 73.6351 160.266 79.3684 163.866C82.7017 166 83.9018 164 87.1018 151.333C88.5684 145.067 90.0349 139.867 90.1682 139.6C90.4356 139.467 99.3687 144.4 110.168 150.666C120.968 156.933 130.435 162 131.102 162C132.835 162.001 132.568 166.534 130.168 175.734C126.035 191.6 117.101 204.8 106.435 210.4C102.301 212.533 98.568 213.333 90.968 213.333Z" fill="white"/>
</svg>
